<svg width="164" height="214" viewBox="0 0 164 214" fill="none" xmlns="http://www.w3.org/2000/svg">
<path d="M0 75L-38.9711 30L38.9711 30L0 75Z" fill="#1F011A"/>
<path d="M-39 -30H39V30H-39V-30Z" fill="#1F011A"/>
<path d="M0 142L38.9711 187H-38.9711L0 142Z" fill="#1F011A"/>
<path d="M-39 187H39V247H-39V187Z" fill="#1F011A"/>
<path d="M0 141L38.9711 186H-38.9711L0 141Z" fill="#1F011A"/>
<path d="M-39 186H39V246H-39V186Z" fill="#1F011A"/>
<path d="M82 75L43.0289 30L120.971 30L82 75Z" fill="#1F011A"/>
<path d="M43 -30H121V30H43V-30Z" fill="#1F011A"/>
<path d="M123 33L161.971 78H84.0289L123 33Z" fill="#1F011A"/>
<path d="M123 183L84.0289 138H161.971L123 183Z" fill="#1F011A"/>
<path d="M84 78H162V138H84V78Z" fill="#1F011A"/>
<path d="M41 33L79.9711 78H2.02886L41 33Z" fill="#1F011A"/>
<path d="M41 183L2.02885 138H79.9711L41 183Z" fill="#1F011A"/>
<path d="M2 78H80V138H2V78Z" fill="#1F011A"/>
<path d="M82 141L120.971 186H43.0289L82 141Z" fill="#1F011A"/>
<path d="M43 186H121V246H43V186Z" fill="#1F011A"/>
<path d="M164 141L202.971 186H125.029L164 141Z" fill="#1F011A"/>
<path d="M125 186H203V246H125V186Z" fill="#1F011A"/>
<path d="M164 75L125.029 30L202.971 30L164 75Z" fill="#1F011A"/>
<path d="M125 -30H203V30H125V-30Z" fill="#1F011A"/>
</svg>
