<svg width="620" height="454" viewBox="0 0 620 454" fill="none" xmlns="http://www.w3.org/2000/svg">
<path d="M3.77951 378.228L-27.7166 302.638H3.77951H35.2756L66.7716 378.228L35.2756 453.819H3.77951H-27.7166L3.77951 378.228Z" fill="white" fill-opacity="0.06"/>
<path d="M118.425 378.228L86.9292 302.638H118.425H149.921L181.417 378.228L149.921 453.819H118.425H86.9292L118.425 378.228Z" fill="white" fill-opacity="0.06"/>
<path d="M233.071 378.228L201.575 302.638H233.071H264.567L296.063 378.228L264.567 453.819H233.071H201.575L233.071 378.228Z" fill="white" fill-opacity="0.06"/>
<path d="M347.717 378.228L316.22 302.638H347.717H379.213L410.709 378.228L379.213 453.819H347.717H316.22L347.717 378.228Z" fill="white" fill-opacity="0.06"/>
<path d="M462.362 378.228L430.866 302.638H462.362H493.858L525.354 378.228L493.858 453.819H462.362H430.866L462.362 378.228Z" fill="white" fill-opacity="0.06"/>
<path d="M577.008 378.228L545.512 302.638H577.008H608.504L640 378.228L608.504 453.819H577.008H545.512L577.008 378.228Z" fill="white" fill-opacity="0.06"/>
<path d="M-54.1731 227.047L-85.6692 151.457H-54.1731H-22.6771L8.819 227.047L-22.6771 302.638H-54.1731H-85.6692L-54.1731 227.047Z" fill="white" fill-opacity="0.06"/>
<path d="M60.4724 227.047L28.9763 151.457H60.4724H91.9684L123.465 227.047L91.9684 302.638H60.4724H28.9763L60.4724 227.047Z" fill="white" fill-opacity="0.06"/>
<path d="M175.118 227.047L143.622 151.457H175.118H206.614L238.11 227.047L206.614 302.638H175.118H143.622L175.118 227.047Z" fill="white" fill-opacity="0.06"/>
<path d="M289.764 227.047L258.268 151.457H289.764H321.26L352.756 227.047L321.26 302.638H289.764H258.268L289.764 227.047Z" fill="white" fill-opacity="0.06"/>
<path d="M404.409 227.047L372.913 151.457H404.409H435.905L467.402 227.047L435.905 302.638H404.409H372.913L404.409 227.047Z" fill="white" fill-opacity="0.06"/>
<path d="M519.055 227.047L487.559 151.457H519.055H550.551L582.047 227.047L550.551 302.638H519.055H487.559L519.055 227.047Z" fill="white" fill-opacity="0.06"/>
<path d="M633.701 227.047L602.205 151.457H633.701H665.197L696.693 227.047L665.197 302.638H633.701H602.205L633.701 227.047Z" fill="white" fill-opacity="0.06"/>
<path d="M2.51974 75.8661L-28.9763 0.275574H2.51974H34.0158L65.5119 75.8661L34.0158 151.457H2.51974H-28.9763L2.51974 75.8661Z" fill="white" fill-opacity="0.06"/>
<path d="M117.165 75.8661L85.6692 0.275574H117.165H148.661L180.157 75.8661L148.661 151.457H117.165H85.6692L117.165 75.8661Z" fill="white" fill-opacity="0.06"/>
<path d="M231.811 75.8661L200.315 0.275574H231.811H263.307L294.803 75.8661L263.307 151.457H231.811H200.315L231.811 75.8661Z" fill="white" fill-opacity="0.06"/>
<path d="M346.457 75.8661L314.961 0.275574H346.457H377.953L409.449 75.8661L377.953 151.457H346.457H314.961L346.457 75.8661Z" fill="white" fill-opacity="0.06"/>
<path d="M461.103 75.8661L429.606 0.275574H461.103H492.599L524.095 75.8661L492.599 151.457H461.103H429.606L461.103 75.8661Z" fill="white" fill-opacity="0.06"/>
<path d="M575.748 75.8661L544.252 0.275574H575.748H607.244L638.74 75.8661L607.244 151.457H575.748H544.252L575.748 75.8661Z" fill="white" fill-opacity="0.06"/>
</svg>
