<svg width="73" height="73" viewBox="0 0 73 73" fill="none" xmlns="http://www.w3.org/2000/svg">
<rect width="73" height="73" fill="#E7E6E6"/>
<g id="Main Page" clip-path="url(#clip0_41_2)">
<rect width="1440" height="3846" transform="translate(-165 -2148)" fill="#F6F7F9"/>
<g id="content">
<g id="by parameters">
<g clip-path="url(#clip1_41_2)">
<rect id="bg" x="-87" y="-161.475" width="1282" height="320" rx="10" fill="white"/>
<g id="Frame 31">
<g id="Frame 33">
<g id="Frame 36">
<g id="Frame 35">
<rect x="-39" y="-17.4751" width="151" height="132" rx="10" fill="#F6F7F9"/>
<g id="car-estate">
<path id="Vector" d="M9.5 18.5249H48.5L57.5 30.5249H63.5C66.83 30.5249 69.5 33.1949 69.5 36.5249V45.5249H63.5C63.5 47.9118 62.5518 50.201 60.864 51.8889C59.1761 53.5767 56.8869 54.5249 54.5 54.5249C52.1131 54.5249 49.8239 53.5767 48.136 51.8889C46.4482 50.201 45.5 47.9118 45.5 45.5249H27.5C27.5 47.9118 26.5518 50.201 24.864 51.8889C23.1761 53.5767 20.8869 54.5249 18.5 54.5249C16.1131 54.5249 13.8239 53.5767 12.136 51.8889C10.4482 50.201 9.5 47.9118 9.5 45.5249H3.5V24.5249C3.5 21.1949 6.17 18.5249 9.5 18.5249ZM8 23.0249V30.5249H32V23.0249H8ZM36.5 23.0249V30.5249H51.92L46.25 23.0249H36.5ZM18.5 41.0249C17.3065 41.0249 16.1619 41.499 15.318 42.3429C14.4741 43.1868 14 44.3314 14 45.5249C14 46.7184 14.4741 47.863 15.318 48.7069C16.1619 49.5508 17.3065 50.0249 18.5 50.0249C19.6935 50.0249 20.8381 49.5508 21.682 48.7069C22.5259 47.863 23 46.7184 23 45.5249C23 44.3314 22.5259 43.1868 21.682 42.3429C20.8381 41.499 19.6935 41.0249 18.5 41.0249ZM54.5 41.0249C53.3065 41.0249 52.1619 41.499 51.318 42.3429C50.4741 43.1868 50 44.3314 50 45.5249C50 46.7184 50.4741 47.863 51.318 48.7069C52.1619 49.5508 53.3065 50.0249 54.5 50.0249C55.6935 50.0249 56.8381 49.5508 57.682 48.7069C58.5259 47.863 59 46.7184 59 45.5249C59 44.3314 58.5259 43.1868 57.682 42.3429C56.8381 41.499 55.6935 41.0249 54.5 41.0249Z" fill="black"/>
</g>
</g>
</g>
</g>
</g>
</g>
</g>
</g>
</g>
<defs>
<clipPath id="clip0_41_2">
<rect width="1440" height="3846" fill="white" transform="translate(-165 -2148)"/>
</clipPath>
<clipPath id="clip1_41_2">
<rect x="-87" y="-161.869" width="1282" height="321" rx="10" fill="white"/>
</clipPath>
</defs>
</svg>
