<svg width="24" height="25" viewBox="0 0 24 25" fill="none" xmlns="http://www.w3.org/2000/svg">
<path d="M22.34 9.46123L20.34 8.46123C19.97 8.28123 19.51 8.42123 19.33 8.79123C19.14 9.17123 19.29 9.62123 19.66 9.80123L21.25 10.5912V15.3812L17.5 15.3912V5.13123C17.5 3.13123 16.16 2.13123 14.5 2.13123H6.5C4.84 2.13123 3.5 3.13123 3.5 5.13123V21.3812H2C1.59 21.3812 1.25 21.7212 1.25 22.1312C1.25 22.5412 1.59 22.8812 2 22.8812H19C19.41 22.8812 19.75 22.5412 19.75 22.1312C19.75 21.7212 19.41 21.3812 19 21.3812H17.5V16.8912L22 16.8812C22.42 16.8812 22.75 16.5412 22.75 16.1312V10.1312C22.75 9.85123 22.59 9.59123 22.34 9.46123ZM6 7.02123C6 5.63123 6.85 5.13123 7.89 5.13123H13.12C14.15 5.13123 15 5.63123 15 7.02123V8.25123C15 9.63123 14.15 10.1312 13.11 10.1312H7.89C6.85 10.1312 6 9.63123 6 8.24123V7.02123ZM6.5 12.3812H9.5C9.91 12.3812 10.25 12.7212 10.25 13.1312C10.25 13.5412 9.91 13.8812 9.5 13.8812H6.5C6.09 13.8812 5.75 13.5412 5.75 13.1312C5.75 12.7212 6.09 12.3812 6.5 12.3812Z" fill="#90A3BF"/>
</svg>
