<svg width="24" height="25" viewBox="0 0 24 25" fill="none" xmlns="http://www.w3.org/2000/svg">
<path d="M9 2.13123C6.38 2.13123 4.25 4.26123 4.25 6.88123C4.25 9.45123 6.26 11.5312 8.88 11.6212C8.96 11.6112 9.04 11.6112 9.1 11.6212C9.12 11.6212 9.13 11.6212 9.15 11.6212C9.16 11.6212 9.16 11.6212 9.17 11.6212C11.73 11.5312 13.74 9.45123 13.75 6.88123C13.75 4.26123 11.62 2.13123 9 2.13123Z" fill="#90A3BF"/>
<path d="M14.08 14.2812C11.29 12.4212 6.74 12.4212 3.93 14.2812C2.66 15.1312 1.96 16.2812 1.96 17.5112C1.96 18.7412 2.66 19.8812 3.92 20.7212C5.32 21.6612 7.16 22.1312 9 22.1312C10.84 22.1312 12.68 21.6612 14.08 20.7212C15.34 19.8712 16.04 18.7312 16.04 17.4912C16.03 16.2612 15.34 15.1212 14.08 14.2812Z" fill="#90A3BF"/>
<path d="M19.99 7.4712C20.15 9.4112 18.77 11.1112 16.86 11.3412C16.85 11.3412 16.85 11.3412 16.84 11.3412H16.81C16.75 11.3412 16.69 11.3412 16.64 11.3612C15.67 11.4112 14.78 11.1012 14.11 10.5312C15.14 9.6112 15.73 8.2312 15.61 6.7312C15.54 5.9212 15.26 5.1812 14.84 4.5512C15.22 4.3612 15.66 4.2412 16.11 4.2012C18.07 4.0312 19.82 5.4912 19.99 7.4712Z" fill="#90A3BF"/>
<path d="M21.99 16.7213C21.91 17.6913 21.29 18.5313 20.25 19.1013C19.25 19.6513 17.99 19.9113 16.74 19.8813C17.46 19.2313 17.88 18.4213 17.96 17.5613C18.06 16.3213 17.47 15.1313 16.29 14.1813C15.62 13.6513 14.84 13.2313 13.99 12.9213C16.2 12.2813 18.98 12.7113 20.69 14.0913C21.61 14.8313 22.08 15.7613 21.99 16.7213Z" fill="#90A3BF"/>
</svg>
