<svg width="24" height="25" viewBox="0 0 24 25" fill="none" xmlns="http://www.w3.org/2000/svg">
<path d="M12 2.13123C6.48 2.13123 2 6.61123 2 12.1312C2 17.6512 6.48 22.1312 12 22.1312C17.52 22.1312 22 17.6512 22 12.1312C22 6.61123 17.53 2.13123 12 2.13123Z" fill="#90A3BF"/>
<rect x="4" y="4.13123" width="16" height="16" rx="8" fill="white"/>
<path d="M12 6.13123C8.688 6.13123 6 8.81923 6 12.1312C6 15.4432 8.688 18.1312 12 18.1312C15.312 18.1312 18 15.4432 18 12.1312C18 8.81923 15.318 6.13123 12 6.13123Z" fill="#90A3BF"/>
<rect x="8" y="8.13123" width="8" height="8" rx="4" fill="white"/>
<rect x="11" y="17.1312" width="2" height="4" fill="#90A3BF"/>
<rect x="17" y="11.1312" width="4" height="2" fill="#90A3BF"/>
<rect x="3" y="11.1312" width="4" height="2" fill="#90A3BF"/>
</svg>
